<?xml version="1.0" standalone="no"?>
<!DOCTYPE svg PUBLIC "-//W3C//DTD SVG 20010904//EN"
 "http://www.w3.org/TR/2001/REC-SVG-20010904/DTD/svg10.dtd">
<svg version="1.0" xmlns="http://www.w3.org/2000/svg"
 width="700.000000pt" height="700.000000pt" viewBox="0 0 700.000000 700.000000"
 preserveAspectRatio="xMidYMid meet">
<metadata>
Created by potrace 1.14, written by Peter Selinger 2001-2017
</metadata>
<g transform="translate(0.000000,700.000000) scale(0.100000,-0.100000)"
fill="#000000" stroke="none">
<path d="M2638 6979 c-20 -10 -50 -35 -65 -56 l-28 -36 -3 -356 -3 -356 -707
1 c-389 0 -729 -4 -757 -8 -212 -36 -391 -205 -441 -414 -15 -63 -16 -282 -16
-2394 -1 -2127 1 -2330 16 -2389 45 -174 162 -309 333 -382 l78 -34 335 -3
336 -3 -1 -197 c0 -206 5 -239 46 -290 51 -65 -72 -61 1751 -59 l1657 2 27 21
c15 11 41 37 58 57 l30 37 0 215 1 215 300 0 c341 0 394 7 505 66 131 68 250
218 274 344 3 19 9 46 12 60 3 14 5 1069 6 2345 0 2106 -1 2326 -16 2389 -43
183 -183 334 -365 394 l-76 25 -720 3 c-396 1 -726 3 -732 3 -10 1 -13 76 -13
341 0 315 -1 344 -19 378 -23 46 -46 67 -94 87 -32 13 -138 15 -854 15 -789
-1 -819 -2 -855 -21z"/>
</g>
</svg>
